# xmcd
#
# Track frame offsets:
#	150
#	13840
#	28005
#	45240
#	59230
#	73027
#	92217
#	102012
#	120147
#	130765
#	146622
#	170165
#
# Disc length: 2489 seconds
#
# Revision: 0
# Processed by: cddbd v1.4PL0 Copyright (c) Steve Scherf et al.
# Submitted via: audiograbber 1.81.01
#
DISCID=a409b70c
DTITLE=Enzo Jannacci - I grandi successi cd1
DYEAR=1900
DGENRE=pop
TTITLE0=Vengo anch'io no tu no
TTITLE1=Giovanni telegrafista
TTITLE2=Faceva il palo
TTITLE3=Bobo merenda
TTITLE4=Domenica 24 marzo
TTITLE5=Gli zingari
TTITLE6=Hai pensato mai
TTITLE7=Ho visto un re
TTITLE8=Non finirà mai
TTITLE9=Messico e nuvole
TTITLE10=El portava i scarp del tennis
TTITLE11=Ragazzo padre
EXTD=
EXTT0=
EXTT1=
EXTT2=
EXTT3=
EXTT4=
EXTT5=
EXTT6=
EXTT7=
EXTT8=
EXTT9=
EXTT10=
EXTT11=
PLAYORDER=
